<svg xmlns="http://www.w3.org/2000/svg" width="363" height="29" viewBox="0 0 363 29">
    <g fill="none" fill-rule="evenodd">
        <g>
            <path fill="#FFF" d="M28.521 14h-22V9c0-4.418 3.582-8 8-8h6c4.419 0 8 3.582 8 8v5z" transform="translate(.479 -12) translate(0 12)"/>
            <path fill="#FFF" d="M18.521 1.182h-2V1c0-.552.448-1 1-1 .553 0 1 .448 1 1v.182z" transform="translate(.479 -12) translate(0 12)"/>
            <path stroke="#FFF" d="M7.021 14.5H28.021V27.5H7.021zM.845 16.5l6.039 11h.137v-11H.845zM7.02 27.75l.005.01-.005-.004v-.006z" transform="translate(.479 -12) translate(0 12)"/>
            <path stroke="#FFF" stroke-linecap="square" d="M13.521 17.5h9M11.521 21h13M11.521 24.5h13M23.521 14.5h13" transform="translate(.479 -12) translate(0 12)"/>
        </g>
        <g stroke="#FFF">
            <path d="M7.5.5H28.5V24.5H7.5zM.845 13.5l6.039 11h.137v-11H.845zM7.02 24.75l.005.01-.005-.004v-.006z" transform="translate(.479 -12) translate(333.521 15)"/>
            <path stroke-linecap="square" d="M13 4.5h10M11 16.5h14M11 8.5h14M11 12.5h14M11 20.5h14" transform="translate(.479 -12) translate(333.521 15)"/>
        </g>
        <g>
            <path fill="#FFF" fill-rule="nonzero" d="M.972 36.436c.756.108 1.368-.108 1.872-.648.252-.216.468-.648.612-1.296L7.92 13.54h3.888L7.2 35.104c-.288 1.44-.936 2.772-2.052 3.744-1.116.972-2.7 1.548-5.004 1.404l.828-3.816zm18.316-1.872c-.288 1.08-.72 2.052-1.26 2.88-.54.72-1.152 1.404-1.98 1.944-.864.612-1.908.9-3.168.9-1.26 0-2.196-.288-2.844-.9-.612-.54-.936-1.224-1.08-1.944-.252-.828-.252-1.764-.036-2.88l3.312-15.588c.252-1.044.648-1.98 1.224-2.844.54-.72 1.116-1.44 1.944-1.98.828-.54 1.908-.9 3.204-.9 1.296 0 2.196.36 2.808.9.612.54.972 1.26 1.116 1.98.252.792.252 1.728.072 2.844l-3.312 15.588zm-.576-15.588c.144-.72.072-1.26-.18-1.656-.144-.18-.396-.288-.72-.288-.684 0-1.116.504-1.368.972-.144.288-.252.612-.324.972l-3.312 15.588c-.18.684-.108 1.26.18 1.656.144.18.36.288.684.288.684 0 1.116-.432 1.368-.972.108-.216.252-.54.36-.972l3.312-15.588zM26.84 40l.324-11.16H26.12L23.78 40h-3.888l5.616-26.46h3.888c4.644 0 6.048 2.592 5.004 7.632-.576 2.628-1.764 5.004-3.456 6.012L30.728 40H26.84zm.072-14.76c.54 0 1.26-.036 1.944-.576.684-.54 1.368-1.476 1.764-3.348.396-1.872.144-2.844-.324-3.384-.468-.54-1.188-.54-1.728-.54l-1.656 7.848zm12.124.972l-.072-1.224h-.216L35.58 40h-3.564l5.616-26.46h3.456l.828 13.788.072 1.224h.216l3.204-15.012h3.564L43.356 40H39.9l-.864-13.788zM44.285 40l9.612-26.46h4.752L57.029 40h-3.78l.396-5.4H49.9L48.065 40h-3.78zm10.368-17.856l.036-.684h-.216l-.252.684-2.88 8.352h2.664l.648-8.352zm8.92-8.604h3.888L62.6 36.4h5.148l-.756 3.6h-9.036l5.616-26.46zM67.705 40l5.616-26.46h3.06c3.6 0 5.328.72 6.012 2.736.576 2.016.036 5.292-1.08 10.512-1.116 5.184-1.944 8.46-3.384 10.476C76.453 39.28 74.365 40 70.765 40h-3.06zm4.68-3.888c1.332 0 2.124-.144 2.808-1.44.612-1.188 1.116-3.312 1.476-5.04.18-.828.36-1.8.612-2.88.216-1.08.432-2.052.612-2.916.36-1.692.792-3.708.648-5.004-.108-1.26-.828-1.404-2.16-1.404l-3.996 18.684zm19.108-1.548c-.288 1.08-.72 2.052-1.26 2.88-.54.72-1.152 1.404-1.98 1.944-.864.612-1.908.9-3.168.9-1.26 0-2.196-.288-2.844-.9-.612-.54-.936-1.224-1.08-1.944-.252-.828-.252-1.764-.036-2.88l3.312-15.588c.252-1.044.648-1.98 1.224-2.844.54-.72 1.116-1.44 1.944-1.98.828-.54 1.908-.9 3.204-.9 1.296 0 2.196.36 2.808.9.612.54.972 1.26 1.116 1.98.252.792.252 1.728.072 2.844l-3.312 15.588zm-.576-15.588c.144-.72.072-1.26-.18-1.656-.144-.18-.396-.288-.72-.288-.684 0-1.116.504-1.368.972-.144.288-.252.612-.324.972l-3.312 15.588c-.18.684-.108 1.26.18 1.656.144.18.36.288.684.288.684 0 1.116-.432 1.368-.972.108-.216.252-.54.36-.972l3.312-15.588zM99.045 40l.324-11.16h-1.044L95.985 40h-3.888l5.616-26.46h3.888c4.644 0 6.048 2.592 5.004 7.632-.576 2.628-1.764 5.004-3.456 6.012L102.933 40h-3.888zm.072-14.76c.54 0 1.26-.036 1.944-.576.684-.54 1.368-1.476 1.764-3.348.396-1.872.144-2.844-.324-3.384-.468-.54-1.188-.54-1.728-.54l-1.656 7.848zM103.141 40l9.612-26.46h4.752L115.885 40h-3.78l.396-5.4h-3.744l-1.836 5.4h-3.78zm10.368-17.856l.036-.684h-.216l-.252.684-2.88 8.352h2.664l.648-8.352zm8.92-8.604h3.888c1.692 0 3.276.396 4.32 1.656 1.044 1.26 1.512 3.24.828 6.264s-1.944 4.968-3.492 6.228c-1.548 1.26-3.348 1.728-5.04 1.728L120.701 40h-3.888l5.616-26.46zm1.332 11.916c1.188 0 2.016-.216 2.556-.828.576-.576.864-1.548 1.188-3.024.324-1.476.432-2.484.144-3.168-.288-.612-1.008-.936-2.196-.936l-1.692 7.956z" transform="translate(.479 -12) translate(40.521)"/>
        </g>
    </g>
</svg>
